<svg version="1.2" xmlns="http://www.w3.org/2000/svg" viewBox="0 0 500 501" width="500" height="501">
	<title>logo-svg</title>
	<defs>
		<linearGradient id="g1" x2="1" gradientUnits="userSpaceOnUse" gradientTransform="matrix(-136.576,-123.427,123.427,-136.576,317.788,311.26)">
			<stop offset=".003" stop-color="#512b06"/>
			<stop offset=".345" stop-color="#b16e39"/>
			<stop offset=".442" stop-color="#b7753e"/>
			<stop offset=".58" stop-color="#c7874d"/>
			<stop offset=".733" stop-color="#dfa463"/>
			<stop offset="1" stop-color="#b16e39"/>
		</linearGradient>
	</defs>
	<style>
		tspan { white-space:pre } 
		.s0 { fill: #020001 } 
		.s1 { fill: url(#g1) } 
		.s2 { fill: none } 
		.t3 { font-size: 17px;fill: #020001;font-weight: bold;font-family: "' Montserrat" } 
	</style>
	<g id="BACKGROUND">
		<path id="Layer" class="s0" d="m0 0h500v500h-500z"/>
	</g>
	<g id="OBJECTS">
		<g id="Layer">
			<path id="Layer" class="s1" d="m353.3 250c0 57.1-46.3 103.3-103.3 103.3-57 0-103.3-46.2-103.3-103.3 0-57 46.3-103.3 103.3-103.3 57 0 103.3 46.3 103.3 103.3z"/>
			<g id="Layer">
				<g id="Layer">
					<path id="Layer" fill-rule="evenodd" class="s0" d="m304.9 261.8c0 9.8-7.9 17.7-17.7 17.7-3.4 0-6.6-0.9-9.4-2.7-8.3 7.7-19.3 12.4-31.3 12.4-25.7 0-46.6-21.4-46.6-47.7 0-1.8 1.5-4.4 14.4-6.5 8.6-1.4 20-2.2 32.2-2.2 12.2 0 23.6 0.8 32.2 2.2 12.9 2.1 14.4 4.7 14.4 6.5q0 1.8-0.2 3.6c7.1 2.4 12 9.1 12 16.7zm-2.7 0c0-6.2-3.8-11.8-9.5-14q-0.1 0.2-0.1 0.4-0.1 0.5-0.1 0.9c5 2.2 8.4 7.1 8.4 12.7 0 7.5-6.2 13.7-13.7 13.7-2.3 0-4.5-0.6-6.5-1.6q-0.5 0.5-0.9 1c2.2 1.3 4.8 1.9 7.4 1.9 8.3 0 15-6.7 15-15zm-99.6-20.3c0.6 2.2 15.7 6 43.9 6 28.2 0 43.3-3.9 43.9-6-0.6-2.2-15.7-6-43.9-6-28.2 0-43.3 3.8-43.9 6q0 0 0 0zm76.4 30.2c5.4-6.1 9.2-13.7 10.7-22.1q0.1-0.9 0.2-1.7 0.1-0.3 0.1-0.7 0.1-0.6 0.2-1.3 0-0.5 0.1-1c-2.1 1.1-5.6 2.1-11.6 3.1-8.6 1.4-20 2.2-32.2 2.2-12.2 0-23.6-0.8-32.2-2.2-6-1-9.5-2-11.6-3.1 1.7 23.2 20.7 41.6 43.8 41.6 12 0 23-5 30.9-13.1q0.1-0.1 0.2-0.2 0.7-0.7 1.4-1.4 0 0 0-0.1zm13-19.8c-1.7 7.4-5 14.2-9.5 19.8 1.4 0.7 3 1.1 4.7 1.1 6.1 0 11-4.9 11-11 0-4.3-2.5-8.1-6.2-9.9z"/>
					<path id="Layer" class="s0" d="m246.5 246.3c21.4 0 38.8-2.1 38.8-4.8 0-2.7-17.4-4.8-38.8-4.8-21.4 0-38.8 2.1-38.8 4.8 0 2.7 17.4 4.8 38.8 4.8z"/>
					<g id="Layer">
						<path id="Layer" class="s0" d="m250.4 209.2q-0.5 0.8-1.1 1.7c-0.4 0.6-0.6 0.9-1.1 1.5-0.7 0.8-1.3 1.6-1.8 2.5-0.5 0.9-1 1.7-1.3 2.7q-0.5 1.3-0.6 2.7c-0.2 0.8-0.2 1.7-0.1 2.4 0 0.4 0.1 0.8 0.1 1.1q0.1 0.6 0.2 1c0.2 0.6 0.4 1.2 0.6 1.6 0.1 0.4 0.4 0.7 0.5 1q0.2 0.3 0.2 0.3c0.2 0.3 0.1 0.6-0.1 0.8-0.2 0.3-0.6 0.3-0.9 0q0 0-0.3-0.3c-0.2-0.2-0.5-0.4-0.8-0.9q-0.6-0.6-1.1-1.7-0.3-0.5-0.5-1.1-0.3-0.6-0.4-1.3c-0.3-1-0.4-2-0.4-3.2 0-1.1 0.2-2.2 0.5-3.4 0.6-2.3 1.9-4.6 3.6-6.6 0.2-0.3 0.7-0.9 1-1.2q0.4-0.6 0.8-1.3c0.5-0.9 1-1.7 1.2-2.7q0.5-1.3 0.7-2.7c0.1-0.8 0.1-1.7 0.1-2.4 0-0.4-0.1-0.8-0.1-1.1q-0.2-0.6-0.3-1c-0.2-0.6-0.3-1.2-0.6-1.6-0.1-0.4-0.3-0.8-0.4-1q-0.2-0.3-0.2-0.3l-0.1-0.1c-0.1-0.2-0.1-0.5 0.1-0.7 0.3-0.3 0.7-0.3 0.9-0.1q0 0 0.3 0.4c0.2 0.2 0.6 0.4 0.9 0.9q0.5 0.6 1.1 1.7 0.2 0.5 0.5 1.1c0.1 0.4 0.3 0.9 0.4 1.3 0.2 1 0.4 2 0.3 3.1 0 1.2-0.1 2.3-0.4 3.5q-0.5 1.8-1.4 3.4z"/>
						<path id="Layer" class="s0" d="m242 206.6q-0.3 0.6-0.8 1.3c-0.4 0.5-0.6 0.8-1 1.2-0.5 0.7-1.1 1.4-1.5 2.1-0.4 0.7-0.8 1.5-1 2.2q-0.4 1.1-0.5 2.2c-0.2 0.8-0.2 1.4-0.1 2.1q0.1 0.9 0.3 1.7c0.1 0.5 0.3 0.9 0.4 1.3 0.2 0.3 0.4 0.6 0.5 0.8q0.1 0.3 0.1 0.3c0.1 0.2 0.1 0.4 0 0.6-0.2 0.2-0.6 0.2-0.8 0q0 0-0.2-0.2c-0.2-0.2-0.4-0.4-0.7-0.7q-0.5-0.6-0.9-1.4-0.2-0.5-0.5-1c-0.1-0.3-0.2-0.7-0.3-1.1-0.2-0.8-0.3-1.6-0.3-2.5 0-0.9 0.2-1.9 0.4-2.9 0.5-1.9 1.6-3.8 3-5.4 0.2-0.2 0.6-0.7 0.8-1q0.3-0.5 0.6-1c0.5-0.8 0.9-1.5 1.1-2.2q0.4-1.2 0.5-2.3c0.1-0.7 0.1-1.4 0.1-2q-0.1-1-0.3-1.7c-0.2-0.5-0.3-1-0.5-1.3-0.1-0.4-0.3-0.6-0.4-0.8q-0.1-0.3-0.1-0.3l-0.1-0.1c-0.1-0.2 0-0.4 0.1-0.6 0.2-0.2 0.5-0.2 0.8 0q0 0 0.2 0.3c0.2 0.2 0.5 0.4 0.7 0.7q0.5 0.6 0.9 1.4 0.2 0.5 0.5 1 0.1 0.5 0.3 1.1c0.2 0.7 0.3 1.6 0.3 2.5-0.1 0.9-0.2 1.9-0.5 2.8q-0.3 1.5-1.1 2.9z"/>
						<path id="Layer" class="s0" d="m257.5 212.6q-0.4 0.7-0.9 1.3c-0.3 0.5-0.5 0.8-0.9 1.3-0.5 0.6-1.1 1.3-1.5 2-0.4 0.8-0.8 1.5-1 2.2q-0.4 1.2-0.6 2.3c-0.1 0.7-0.1 1.4 0 2q0 0.9 0.2 1.7c0.2 0.5 0.4 1 0.5 1.3 0.1 0.3 0.3 0.6 0.4 0.8q0.2 0.3 0.2 0.3c0.1 0.2 0.1 0.5-0.1 0.6-0.2 0.2-0.5 0.3-0.7 0.1q0-0.1-0.3-0.3c-0.1-0.2-0.4-0.3-0.6-0.7q-0.5-0.6-1-1.4-0.2-0.5-0.4-1-0.2-0.5-0.3-1.1c-0.2-0.7-0.3-1.6-0.3-2.5 0-0.9 0.1-1.9 0.4-2.8 0.5-2 1.6-3.8 2.9-5.4 0.2-0.3 0.7-0.8 0.8-1.1q0.4-0.4 0.7-1c0.4-0.7 0.8-1.5 1.1-2.2q0.4-1.2 0.5-2.2c0.1-0.8 0.1-1.4 0.1-2.1q-0.1-0.9-0.3-1.7c-0.2-0.5-0.3-0.9-0.5-1.3-0.1-0.3-0.3-0.6-0.4-0.8q-0.2-0.3-0.2-0.3c-0.1-0.2-0.1-0.5 0.1-0.6 0.2-0.3 0.5-0.3 0.7-0.1q0 0 0.3 0.3c0.2 0.2 0.4 0.4 0.7 0.8q0.4 0.5 0.9 1.3 0.2 0.5 0.4 1 0.2 0.5 0.4 1.1c0.1 0.7 0.3 1.6 0.2 2.5 0 0.9-0.1 1.9-0.4 2.9q-0.4 1.4-1.1 2.8z"/>
					</g>
				</g>
				<g id="Layer">
					<path id="Layer" class="s0" d="m251.2 316.2c-0.3-0.3-0.7-0.8-0.9-1.1q-0.4-0.5-0.7-1.1c-0.5-0.8-0.9-1.6-1.2-2.5q-0.4-1.2-0.6-2.4c-0.1-0.7-0.1-1.5 0-2.2 0-0.3 0.1-0.6 0.1-1q0.1-0.4 0.2-0.8c0.2-0.6 0.3-1.1 0.5-1.4 0.2-0.4 0.3-0.7 0.4-0.9q0.2-0.3 0.2-0.3l0.1-0.1c0.1-0.2 0-0.5-0.1-0.7-0.3-0.2-0.6-0.2-0.8 0q0 0-0.3 0.3c-0.2 0.2-0.5 0.4-0.8 0.8q-0.5 0.6-1 1.5-0.2 0.5-0.4 1.1-0.2 0.5-0.4 1.1c-0.2 0.9-0.3 1.8-0.3 2.8 0 1 0.2 2.1 0.5 3.1q0.4 1.6 1.2 3.1 0.4 0.7 0.9 1.4c0.4 0.6 0.6 0.8 1 1.4 0.6 0.7 1.2 1.4 1.6 2.2 0.5 0.8 0.9 1.6 1.2 2.4q0.4 1.2 0.6 2.4c0.1 0.8 0.1 1.5 0 2.2 0 0.4-0.1 0.7-0.1 1q-0.1 0.5-0.2 0.9c-0.2 0.5-0.3 1-0.5 1.4-0.1 0.3-0.3 0.7-0.4 0.9q-0.2 0.3-0.2 0.3c-0.2 0.2-0.1 0.5 0.1 0.7 0.2 0.2 0.5 0.2 0.8 0q0 0 0.2-0.3c0.2-0.2 0.5-0.4 0.8-0.8q0.5-0.6 1-1.5 0.2-0.5 0.4-1 0.2-0.6 0.4-1.2c0.2-0.9 0.3-1.8 0.3-2.8 0-1-0.2-2-0.5-3.1-0.5-2-1.6-4.1-3.1-5.8z"/>
					<path id="Layer" fill-rule="evenodd" class="s0" d="m324.4 289.4c-0.1 0.2-3 6-8.4 10-2 1.6-4.1 2.7-6.3 3.3 5.7 4.3 8.7 10.8 8.8 11.1 0.2 0.5 0 1.1-0.4 1.4-0.5 0.2-10.5 5.8-19.8 2.7-4.3-1.4-7.5-4.3-9.9-7.1-1.5 1.8-3.2 3.5-5.3 4.9-6.4 4.3-14.3 4.7-19.6 4.3-0.9 9.1-6.6 16.1-13.5 16.1-6.9 0-12.6-7-13.5-16.1-5.3 0.4-13.2 0-19.6-4.3-2.1-1.4-3.8-3.1-5.3-4.9-2.3 2.8-5.6 5.7-9.9 7.1-9.3 3.1-19.3-2.5-19.8-2.7-0.4-0.3-0.6-0.9-0.4-1.4 0.1-0.3 3.1-6.8 8.8-11.1-2.2-0.6-4.3-1.7-6.3-3.3-5.4-4-8.3-9.8-8.4-10-0.3-0.5-0.1-1.1 0.4-1.4 0.4-0.3 10.2-6.3 19.6-3.6 2.2 0.7 4.4 1.8 6.4 3.3 1.7 1.3 3.1 2.7 4.3 4.1q0 0 0 0c4-0.7 15.4-2 24.1 3.8q0.5 0.4 1 0.7c3.5 2.7 5.9 6.1 7.7 9.5 2.5-4.5 6.5-7.5 10.9-7.5 4.4 0 8.4 3 10.9 7.5 1.8-3.4 4.2-6.8 7.7-9.5q0.5-0.3 1-0.7c8.7-5.8 20.1-4.5 24.1-3.8q0 0 0 0c1.2-1.4 2.6-2.8 4.3-4.1q3.1-2.3 6.4-3.3c9.4-2.7 19.2 3.3 19.6 3.6 0.5 0.3 0.7 0.9 0.4 1.4zm-8.9-2.7l-2.3 4 7.4-2.1c-1.3-0.6-3.1-1.3-5.1-1.9zm-9.2 6l4-1.2 3-5.3q-1.5-0.2-3.2-0.3zm-2.4-5.8l-4.3 7.7 3.8-1.1 4.3-7.5q-1.4 0.1-2.7 0.5-0.6 0.2-1.1 0.4zm-8.4 8.9q0 0 0 0 0 0 0 0 0 0 0 0 0 0 0 0 0 0 0 0l1.1-0.3 3.8-6.8q-0.5 0.3-1.1 0.8c-1.3 0.9-2.4 2-3.4 3.1q0.2 0.4 0.1 0.7c0 0.2-0.1 1.1-0.5 2.5zm-0.9 3.3c2.4 1 5.9 2.1 9.5 2.2l-6.9-3.8-2.3 0.7q-0.2 0.4-0.3 0.9zm5.1 3.9l-5.2 2.5 3.8 1.3 6.8-3.4c-1.8 0.1-3.7-0.1-5.4-0.4zm-6-1.4q-0.5 1.2-1.1 2.5l4-2q-1.1-0.3-2-0.7-0.5 0.1-0.9 0.2zm2.9 0.5q0 0 0 0 0 0 0 0zm-3.2-6.5l-9.7 6.5 6.9 1.2c1.4-3 2.3-5.8 2.8-7.7zm-10.9 4.7l9.7-6.5c-2-0.3-5-0.6-8.3-0.4zm-7.8 5.3l5.3-3.6 1.7-8.3c-1.6 0.2-3.2 0.5-4.8 0.9zm-7.6 5.2l5.1-3.4 2.4-11.8q-1.9 0.7-3.7 1.9-0.7 0.5-1.3 1zm-5-2.3q0.9 2.2 1.3 4.8l1.1-0.8 2.3-11.3c-2 2.3-3.5 4.8-4.7 7.3zm-28.8-7.3l2.2 11.3 1.2 0.8q0.4-2.6 1.3-4.8c-1.2-2.5-2.7-5-4.7-7.3zm-7.8-5.6l2.4 11.8 5.1 3.4-2.4-12.2q-0.7-0.5-1.4-1-1.8-1.2-3.7-2zm-7.1-1.8l1.7 8.4 5.3 3.5-2.3-10.9c-1.5-0.5-3.1-0.8-4.7-1zm-10.5 0.2l9.7 6.5-1.4-6.9c-3.4-0.2-6.3 0.1-8.3 0.4zm-1.2 1.7c0.5 2 1.4 4.8 2.8 7.8l6.9-1.3zm-1.2 5.9q-0.9 0.4-2 0.7l3.9 2q-0.6-1.3-1.1-2.5-0.4-0.1-0.8-0.2zm-2 0.7q0 0 0 0 0 0 0 0zm0 0q0 0 0 0 0 0 0 0zm0 0q0 0 0 0 0 0 0 0zm-3.2 0.8c-1.7 0.4-3.5 0.6-5.4 0.5l6.8 3.4 3.8-1.3zm4.8-4.7l-2.3-0.7-6.9 3.8c3.7-0.1 7.1-1.2 9.5-2.2q-0.1-0.5-0.3-0.9zm-5.5-9.5l3.8 6.8 1.1 0.3q0 0 0 0c-0.3-1.4-0.5-2.3-0.5-2.5q0-0.4 0.1-0.7c-0.9-1.1-2.1-2.2-3.4-3.2q-0.5-0.4-1.1-0.7zm4.9 7.1q0 0 0 0 0 0 0 0zm-12.1-9.8l4.2 7.5 3.9 1.1-4.3-7.7q-0.6-0.2-1.2-0.4-1.3-0.4-2.6-0.5zm-5.7 0.2l3 5.3 4 1.2-3.8-6.8q-1.7 0.1-3.2 0.3zm-7.3 2.4l7.4 2.1-2.3-4c-2 0.6-3.8 1.3-5.1 1.9zm2.8 6.3l4-2.1-7.4-2.2c0.8 1.2 1.9 2.8 3.4 4.3zm4.1 3.5l6.8-3.7-4-1.1-5.3 2.9q0.7 0.6 1.4 1.2 0.6 0.4 1.1 0.7zm4.7 2.3q0.5 0.1 1.1 0.2l7.8-4.2-3.9-1.1-7.5 4.1q1.2 0.6 2.5 1zm-1.6 5.6l5.5 2.7 3.9-1.3-7-3.4q-1.3 1-2.4 2zm-4.7 6.1l7.3-2.4-4.1-2c-1.4 1.6-2.5 3.2-3.2 4.4zm7.9-0.4l-7.3 2.4c1.4 0.6 3.2 1.2 5.2 1.7zm6.9-2.3l-4 1.3-2.7 5.4q1.5 0.2 3.1 0.2zm2.6 5.8l4.1-8-3.8 1.3-3.9 7.7q1.3-0.2 2.6-0.6 0.5-0.2 1-0.4zm8.2-6.5q-0.7-1.1-1.4-2.1l-3.4 6.7c1.9-1.4 3.5-3 4.8-4.6zm13.9-1.7l-5.3-3.6-8.4 1.6c0.8 1.4 1.7 2.7 2.7 4zm-4.6 7.4l12.3-2.3-5.1-3.4-11.8 2.2q1.4 1.5 3.2 2.7 0.6 0.5 1.3 0.8 0.1 0 0.1 0zm16.8 3.2q0-0.4 0-0.7 0-0.8 0-1.7l-2-1.4-11.5 2.2c4.8 1.7 9.8 1.8 13.5 1.6zm25.2-0.7c0-9.2-5.1-16.7-11.5-16.7-6.4 0-11.6 7.5-11.6 16.7 0 9.3 5.2 16.8 11.6 16.8 6.4 0 11.5-7.5 11.5-16.8zm15.6-0.9l-11.4-2.2-2.1 1.4q0.1 0.9 0.1 1.7 0 0.3 0 0.7c3.7 0.2 8.7 0.1 13.4-1.6zm8-5.1l-11.8-2.2-5.1 3.4 12.3 2.3q0 0 0 0 0.7-0.3 1.4-0.8 1.8-1.2 3.2-2.7zm4.4-5.9l-8.4-1.5-5.3 3.5 11 2c1-1.2 1.9-2.6 2.7-4zm5 8.3l-3.4-6.7q-0.6 1.1-1.4 2.1c1.3 1.6 2.9 3.3 4.8 4.6zm7.1 2.9l-4-7.7-3.8-1.2 4.1 7.9q0.5 0.2 1 0.4 1.3 0.4 2.7 0.6zm5.6 0l-2.8-5.4-3.9-1.3 3.6 6.9q1.6 0 3.1-0.2zm7.4-2.1l-7.3-2.4 2.1 4.1c2.1-0.5 3.9-1.1 5.2-1.7zm-2.5-6.4l-4.1 2 7.3 2.4c-0.7-1.2-1.8-2.8-3.2-4.4zm-3.9-3.7l-7 3.4 3.9 1.4 5.5-2.7q-1.1-1.1-2.4-2.1zm3.3-4.6l-7.6-4.1-3.8 1.1 7.8 4.3q0.6-0.2 1.1-0.3 1.3-0.4 2.5-1zm4.7-3.2l-5.3-2.9-4 1.2 6.8 3.7q0.5-0.4 1-0.8 0.8-0.5 1.5-1.2zm5-5.8l-7.4 2.1 4 2.1c1.4-1.5 2.6-3 3.4-4.2z"/>
				</g>
			</g>
			<path id="SVGID_x5F_00000170249854210730218690000012251645980822552763_x5F_" fill-rule="evenodd" class="s2" d="m331.3 250c0 44.9-36.4 81.3-81.3 81.3-44.9 0-81.3-36.4-81.3-81.3 0-44.9 36.4-81.3 81.3-81.3 44.9 0 81.3 36.4 81.3 81.3z"/>
			<text id="Coffee Point" style="transform: matrix(1,0,0,1,0,0)" >
				<tspan x="0" y="0" class="t3">Coffee Point
</tspan>
			</text>
		</g>
	</g>
</svg>